<svg xmlns="http://www.w3.org/2000/svg" width="248" height="64" viewBox="0 0 248 64" role="img" aria-label="Kapkan">
  <title>Kapkan logo (for dark backgrounds)</title>
  
  <g transform="translate(4 4)">
    <rect x="1" y="1" width="54" height="54" rx="13.4" fill="#141a21" stroke="#2a323d" stroke-width="1.4"></rect>
    <g transform="translate(4.8 4.8) scale(0.7187)">
      <rect x="40.32" y="15.36" width="6.82" height="6.82" rx="1.08" fill="#9cccff"></rect>
      <rect x="32.00" y="23.68" width="6.82" height="6.82" rx="1.08" fill="#4ea1ff"></rect>
      <rect x="40.32" y="23.68" width="6.82" height="6.82" rx="1.08" fill="#9cccff"></rect>
      <rect x="23.68" y="32.00" width="6.82" height="6.82" rx="1.08" fill="#3f8fe0"></rect>
      <rect x="32.00" y="32.00" width="6.82" height="6.82" rx="1.08" fill="#4ea1ff"></rect>
      <rect x="40.32" y="32.00" width="6.82" height="6.82" rx="1.08" fill="#9cccff"></rect>
      <rect x="15.36" y="40.32" width="6.82" height="6.82" rx="1.08" fill="#2f6dab"></rect>
      <rect x="23.68" y="40.32" width="6.82" height="6.82" rx="1.08" fill="#3f8fe0"></rect>
      <rect x="32.00" y="40.32" width="6.82" height="6.82" rx="1.08" fill="#4ea1ff"></rect>
      <rect x="40.32" y="40.32" width="6.82" height="6.82" rx="1.08" fill="#9cccff"></rect>
    </g>
  </g>
  
  <text x="78" y="42" font-family="Poppins, -apple-system, BlinkMacSystemFont, &#39;Segoe UI&#39;, Roboto, sans-serif" font-size="38" font-weight="600" letter-spacing="-0.6">
    <tspan fill="#f2f6fb">kap</tspan><tspan fill="#9cccff">kan</tspan>
  </text>
</svg>